<?xml version="1.0" encoding="utf-8"?>
<!-- Generator: Adobe Illustrator 25.2.0, SVG Export Plug-In . SVG Version: 6.00 Build 0)  -->
<svg version="1.1" id="Layer_1" xmlns="http://www.w3.org/2000/svg" xmlns:xlink="http://www.w3.org/1999/xlink" x="0px" y="0px"
	 viewBox="0 0 1920 1080" style="enable-background:new 0 0 1920 1080;" xml:space="preserve">
<style type="text/css">
	.st0{fill:none;}
</style>
<polygon class="st0" points="792.8,376.9 728.5,422.2 734.2,425.9 "/>
<path class="st0" d="M703.4,439.9c0.8,3.2,1.4,6.6,1.9,10.1l15.6-13l-12.1-0.9L703.4,439.9z"/>
<polygon class="st0" points="728.5,422.2 708.7,436.1 720.8,437 734.2,425.9 "/>
<polygon class="st0" points="734.2,425.9 720.8,437 750.5,439.3 748.8,435.4 "/>
<path class="st0" d="M660.9,469.8L613.8,503v23.5l47.5-39.7V481C661.3,476.9,661.2,473.1,660.9,469.8z"/>
<polygon class="st0" points="544.7,551.7 559.6,558.3 552.7,546 "/>
<polygon class="st0" points="530,505.8 530,545.3 544.7,551.7 552.7,546 "/>
<polygon class="st0" points="530,562 544.7,551.7 530,545.3 "/>
<path class="st0" d="M1010.2,458.9c-2.3,4.8-4,10.5-4.9,17.3h39.7l7.9-14.1L1010.2,458.9z"/>
<polygon class="st0" points="568.3,535.1 552.7,546 559.6,558.3 568.3,562 "/>
<polygon class="st0" points="564.8,567.4 568.3,573.5 568.3,564.5 "/>
<polygon class="st0" points="568.3,562 559.6,558.3 564.8,567.4 568.3,564.5 "/>
<path class="st0" d="M1839.1,419.3l-1.6-27.7v-18l-34.2,26.6C1819.1,400.8,1829.1,408.2,1839.1,419.3z"/>
<path class="st0" d="M1808.4,547.5l21.2-26.7l-43.7-3.3C1789.2,536.1,1797,545.7,1808.4,547.5z"/>
<path class="st0" d="M1837.4,511v-54.8c-8-8.6-17.1-11.6-25.4-11.6c-14.8,0-27.7,16.2-27.7,51c0,8.3,0.6,15.6,1.6,21.8l43.7,3.3
	L1837.4,511z"/>
<polygon class="st0" points="1837.4,521.3 1837.4,511 1829.6,520.8 "/>
<path class="st0" d="M1738.4,513.9c-0.5-5.6-0.8-11.5-0.8-17.6c0-20.4,3.7-38.1,9.8-52.5l-40.4,31.5v36.3L1738.4,513.9z"/>
<path class="st0" d="M489.6,569h-1.1c-12.9,13.5-27.4,23.2-44.7,23.2c-28,0-45.8-24.4-45.8-55.2c0-17.6,5.4-31.5,17-42.2L372.1,476
	l-7.1,5.2v106.5h-45.5V515l-77.7,57.7v15.1h-20.3l-0.2,0.2l87.8,129.7l184.4-129.9h-0.6L489.6,569z"/>
<path class="st0" d="M1013,533.3l11.9-21.2h-19.1C1007.1,520.6,1009.6,527.6,1013,533.3z"/>
<path class="st0" d="M800.6,443.4c-8.8,0-17.5,3-27,8.1l32.9,21.3c5.7-1.1,11.8-2.1,18.4-2.9C824,453.8,817.3,443.4,800.6,443.4z"/>
<path class="st0" d="M1035.2,441.6c-10.2,0-19.4,5.8-25,17.3l42.7,3.2l4-7.1C1052.9,446.7,1046,441.6,1035.2,441.6z"/>
<path class="st0" d="M961.7,496.3c0-15.1,2.3-28.7,6.3-40.6L866.8,448c2.4,10,3.6,21.7,3.6,35v31.2l112.4,72.9l7.6-13.6
	C972.8,557.2,961.7,530.9,961.7,496.3z"/>
<path class="st0" d="M1059.3,462.6c-0.6-2.7-1.4-5.3-2.5-7.6l-4,7.1L1059.3,462.6z"/>
<path class="st0" d="M1808.4,547.5c1.3,0.2,2.6,0.3,4,0.3c9.7,0,17.5-4.4,25.1-16.4v-10l-7.8-0.6L1808.4,547.5z"/>
<path class="st0" d="M246.9,421c6.6-8.9,14.1-15,21.8-18.1l-21.7-1.6l-6.7,16.9L246.9,421z"/>
<path class="st0" d="M293.7,441.6l-1.5,9.2c-5.5-1.6-10-3-16.6-3c-11.6,0-25.7,8.9-33.8,33.9v91l77.7-57.7v-62.1L293.7,441.6z"/>
<polygon class="st0" points="240.3,418.1 234.5,415.6 235.9,429.3 "/>
<polygon class="st0" points="365.1,481.2 372.1,476 365.1,472.9 "/>
<path class="st0" d="M530,505.8l22.7,40.2l15.5-10.9V425.5l-53.4-4c9.9,13.7,15.2,34.1,15.2,61.6V505.8z"/>
<path class="st0" d="M236.7,436.7h1.1c2.7-6,5.8-11.2,9.1-15.6l-6.6-2.9l-4.4,11.2L236.7,436.7z"/>
<path class="st0" d="M460.2,443.4c-12.9,0-25.8,6.5-40.7,16.5l-6.5-14.3L372.1,476l42.8,18.8c13.8-12.7,36.5-20.8,69.5-24.9
	C483.6,453.8,476.9,443.4,460.2,443.4z"/>
<path class="st0" d="M454.3,512l30.2,13.2v-22.7C470.8,504.8,461.1,508,454.3,512z"/>
<polygon class="st0" points="1527.9,614.7 1554.5,593.9 1542.2,583.9 "/>
<path class="st0" d="M782,532.6c0,11.8,6.8,17.6,17.6,17.6c10.3,0,17.2-6.1,25.3-15.7v-32C792.5,507.8,782,518.8,782,532.6z"/>
<path class="st0" d="M708.7,436.1l-6.5-0.5c0.4,1.4,0.8,2.8,1.2,4.3L708.7,436.1z"/>
<path class="st0" d="M441.6,532.6c0,11.8,6.8,17.6,17.6,17.6c10.3,0,17.2-6.1,25.3-15.7v-9.3L454.3,512
	C445.1,517.6,441.6,524.6,441.6,532.6z"/>
<path class="st0" d="M642.2,446.4c-11.4,0-18.4,6.3-28.4,17.8V503l47.1-33.2C659.3,452.3,653.3,446.4,642.2,446.4z"/>
<path class="st0" d="M372.1,476l40.9-30.3l-9.7-21.3c5.1-3.7,10.3-7.1,15.7-10.1l-54-4.1v62.7L372.1,476z"/>
<polygon class="st0" points="221.1,587.7 221.3,587.9 221.5,587.7 "/>
<path class="st0" d="M69.6,532.6c0,3.1,0.5,5.8,1.4,8.1l21.4-33.3C75.6,513.4,69.6,522.2,69.6,532.6z"/>
<path class="st0" d="M87.2,550.2c10.3,0,17.2-6.1,25.3-15.7v-32c-8,1.3-14.6,2.9-20.1,4.9L71,540.7
	C73.5,547.1,79.2,550.2,87.2,550.2z"/>
<polygon class="st0" points="196.3,530.1 191.1,543.3 196.3,551 "/>
<polygon class="st0" points="196.3,587.7 196.3,551 191.1,543.3 153.8,637.9 221.3,587.9 221.1,587.7 "/>
<path class="st0" d="M145.3,425.1l19.4-30.1l-78-5.9l7.5,11.1c0.9,0,1.8,0,2.7,0C118.7,400.2,135,408.4,145.3,425.1z"/>
<path class="st0" d="M196.3,404.7h13.4l-17.2-7.5l-27.8-2.1l-19.4,30.1c8.3,13.6,12.7,32.8,12.7,57.9v11.4l33,48.8l5.2-13.2V404.7z"
	/>
<polygon class="st0" points="1567.4,508.5 1568.4,508.9 1568.4,507.6 "/>
<polygon class="st0" points="319.5,452.9 319.5,406.7 299.6,405.2 293.7,441.6 "/>
<polygon class="st0" points="169.7,387.2 49.7,334.5 86.7,389.1 164.7,395 "/>
<polygon class="st0" points="233.4,404.7 234.5,415.6 240.3,418.1 247,401.2 192.4,397.1 209.6,404.7 "/>
<polygon class="st0" points="192.4,397.1 169.7,387.2 164.7,395 "/>
<path class="st0" d="M1045,476.2h15.7c0-4.9-0.4-9.5-1.4-13.6l-6.5-0.5L1045,476.2z"/>
<path class="st0" d="M1392,461.4c1.8-6.6,4.2-12.8,6.9-18.4l-50.9-19.8c0.7,1.2,1.3,2.5,1.9,3.9L1392,461.4z"/>
<path class="st0" d="M1543.4,499.1l-6.1-2.4c0,0.6,0,1.3,0,1.9L1543.4,499.1z"/>
<polygon class="st0" points="1542.2,583.9 1554.5,593.9 1568.4,583.1 1568.4,527.7 "/>
<path class="st0" d="M1317.9,400.8l-12.6-10.3l1.9,9.8c0.9-0.1,1.8-0.1,2.7-0.1C1312.6,400.2,1315.3,400.4,1317.9,400.8z"/>
<path class="st0" d="M1529.5,541.1l37.9-32.6l-24-9.3l-6.2-0.5C1537,514.7,1534.2,528.9,1529.5,541.1z"/>
<path class="st0" d="M1202.7,446.4c-7.6,0-16.5,5.7-26.2,17.8v7.2l40.6,3.1l-13.2-28C1203.6,446.5,1203.2,446.4,1202.7,446.4z"/>
<polygon class="st0" points="1661.5,508.1 1613.9,504.5 1613.9,526.6 1632,533.6 1661.5,510.7 "/>
<path class="st0" d="M1462.4,444c-9.7,0-16.9,5.5-21.6,15.2l48.6,18.9C1486.3,457,1477.4,444,1462.4,444z"/>
<path class="st0" d="M1434.2,496.3c0,31.7,9.4,52.1,28.2,52.1c9,0,15.8-4.6,20.5-12.9l-48.6-39.7
	C1434.2,495.9,1434.2,496.1,1434.2,496.3z"/>
<polygon class="st0" points="1632,533.6 1661.5,545.1 1661.5,510.7 "/>
<path class="st0" d="M1204.1,446.5l13.2,28l4.4,0.3C1220.7,454.2,1215,447,1204.1,446.5z"/>
<path class="st0" d="M1490.6,495.2l-56.3-4.2c-0.1,1.6-0.1,3.2-0.1,4.9l48.6,39.7c5.2-9.1,7.7-22.6,7.7-39.2
	C1490.6,495.9,1490.6,495.5,1490.6,495.2z"/>
<path class="st0" d="M1489.4,478.1l-48.6-18.9c-3.9,8-6,18.8-6.5,31.7l56.3,4.2C1490.5,489,1490.2,483.3,1489.4,478.1z"/>
<polygon class="st0" points="1568.4,507.6 1568.4,501 1543.4,499.1 1567.4,508.5 "/>
<path class="st0" d="M1293.4,446.4c-7.7,0-16.5,5.7-26.2,17.8v14.1l45.1,3.4V481C1312.4,454.7,1306.3,446.4,1293.4,446.4z"/>
<path class="st0" d="M1568.4,508.9l-1-0.4l-37.9,32.6c-3.3,8.5-7.4,16-12.3,22.4l25,20.4l26.2-56.2V508.9z"/>
<path class="st0" d="M1738.4,513.9l-31.4-2.4v51.3l68.1,26.5l1.9-2.4C1755.8,576.4,1741.8,550.8,1738.4,513.9z"/>
<path class="st0" d="M1221.6,474.8l-4.4-0.3l4.5,9.6v-3C1221.7,478.8,1221.7,476.8,1221.6,474.8z"/>
<path class="st0" d="M1350,427.1c5.4,12.2,7.9,28.1,7.9,47v11.1l30,2.3c0.6-9.4,2-18.1,4.2-26L1350,427.1z"/>
<polygon class="st0" points="1613.9,547.7 1632,533.6 1613.9,526.6 "/>
<path class="st0" d="M1613.9,464.2v4.2l25.3-21.8C1629.6,447.7,1623,453.9,1613.9,464.2z"/>
<path class="st0" d="M1642.4,446.4c-1.1,0-2.1,0.1-3.1,0.2l-25.3,21.8v36l47.5,3.6v-27C1661.5,454.7,1655.5,446.4,1642.4,446.4z"/>
<path d="M92.4,507.4c5.5-1.9,12.1-3.6,20.1-4.9v32c-8.1,9.6-15,15.7-25.3,15.7c-7.9,0-13.7-3.1-16.2-9.5l-26.7,41.5
	c7.3,6.3,16.6,9.9,27.5,9.9c17.3,0,31.8-9.6,44.7-23.2h1.1l3.3,18.8H158v-93.2l-29.4-43.4L92.4,507.4z"/>
<path d="M145.3,425.1l-16.7,25.9l29.4,43.4v-11.4C158,457.9,153.7,438.7,145.3,425.1z"/>
<path d="M145.3,425.1c-10.3-16.7-26.6-24.9-48.3-24.9c-0.9,0-1.8,0-2.7,0l34.4,50.8L145.3,425.1z"/>
<path d="M69.6,532.6c0-10.4,6-19.3,22.8-25.2l36.2-56.4l-34.4-50.8c-23.1,0.7-44.1,10.4-62.9,24l16.2,35.6
	c14.9-10.1,27.8-16.5,40.7-16.5c16.7,0,23.4,10.5,24.3,26.5C51.7,477.5,26,498.4,26,537c0,18.9,6.7,35.4,18.3,45.3L71,540.7
	C70.1,538.5,69.6,535.8,69.6,532.6z"/>
<path d="M246.9,421l46.8,20.5l5.9-36.4l-30.9-2.3C261,406,253.5,412.1,246.9,421z"/>
<polygon points="241.8,587.7 241.8,572.7 221.5,587.7 "/>
<polygon points="234.5,415.6 209.6,404.7 196.3,404.7 196.3,530.1 235.9,429.3 "/>
<polygon points="196.3,587.7 221.1,587.7 196.3,551 "/>
<path d="M299.8,403.9c-4.4-2.3-9.5-3.7-18.3-3.7c-4.2,0-8.6,0.9-12.8,2.6l30.9,2.3L299.8,403.9z"/>
<polygon points="233.4,404.7 209.6,404.7 234.5,415.6 "/>
<path d="M275.6,447.8c6.6,0,11.1,1.3,16.6,3l1.5-9.2L246.9,421c-3.3,4.5-6.3,9.7-9.1,15.6h-1.1l-0.8-7.3l-39.7,100.7V551l24.9,36.8
	h0.3l20.3-15.1v-91C250,456.7,264.1,447.8,275.6,447.8z"/>
<polygon points="319.5,452.9 319.5,515 365.1,481.2 365.1,472.9 "/>
<path d="M342.4,377.9c11,0,19.9-6.2,23.9-15.9l-49.8-18.2c-0.3,1.8-0.5,3.7-0.5,5.7C316,366,327.1,377.9,342.4,377.9z"/>
<polygon points="365.1,404.7 319.5,404.7 319.5,406.7 365.1,410.2 "/>
<path d="M368.7,349.5c0-16.6-11.1-28.4-26.4-28.4c-13.5,0-23.6,9.1-25.9,22.6l49.8,18.2C367.9,358.3,368.7,354.1,368.7,349.5z"/>
<polygon points="319.5,587.7 365.1,587.7 365.1,481.2 319.5,515 "/>
<polygon points="365.1,472.9 365.1,410.2 319.5,406.7 319.5,452.9 "/>
<path d="M484.5,525.3v9.3c-8.1,9.6-15,15.7-25.3,15.7c-10.8,0-17.6-5.8-17.6-17.6c0-8,3.5-15.1,12.8-20.6L415,494.8
	c-11.6,10.7-17,24.6-17,42.2c0,30.8,17.8,55.2,45.8,55.2c17.3,0,31.8-9.6,44.7-23.2h1.1l3.3,18.8h0.6L530,562v-16.7L484.5,525.3z"/>
<path d="M471.5,402.3l-1.1-2c-0.5,0-0.9,0-1.4,0c-17.9,0-34.6,5.4-49.9,14l33,2.5L471.5,402.3z"/>
<polygon points="471.5,402.3 452,416.7 480.9,418.9 "/>
<path d="M474,400.4c-1.2-0.1-2.4-0.1-3.7-0.1l1.1,2L474,400.4z"/>
<path d="M480.9,418.9l33.9,2.6c-9.5-13-23.2-20-40.8-21.1l-2.5,1.9L480.9,418.9z"/>
<path d="M530,505.8v-22.8c0-27.5-5.2-47.9-15.2-61.6l-33.9-2.6L530,505.8z"/>
<polygon points="530,587.7 530,562 493.5,587.7 "/>
<path d="M413,445.6l39-28.9l-33-2.5c-5.4,3-10.6,6.4-15.7,10.1L413,445.6z"/>
<path d="M452,416.7l-39,28.9l6.5,14.3c14.9-10.1,27.8-16.5,40.7-16.5c16.7,0,23.4,10.5,24.3,26.5c-33,4.2-55.7,12.2-69.5,24.9
	l39.4,17.3c6.7-4,16.5-7.3,30.2-9.5v22.7l45.5,20v-39.4l-49.1-86.9L452,416.7z"/>
<path d="M661.3,587.7h45.5V474.1c0-8.7-0.5-16.7-1.6-24l-44,36.7V587.7z"/>
<path d="M660.9,469.8c0.3,3.3,0.5,7,0.5,11.2v5.7l44-36.7c-0.5-3.5-1.1-6.9-1.9-10.1L660.9,469.8z"/>
<polygon points="568.3,587.7 576.3,587.7 568.3,573.5 "/>
<path d="M613.8,503v-38.8c10-11.5,17-17.8,28.4-17.8c11.1,0,17,5.8,18.6,23.4l42.5-29.9c-0.4-1.5-0.7-2.9-1.2-4.3l-134-10.1v109.6
	L613.8,503z"/>
<path d="M659.2,400.2c-21,0-36.4,12.8-49.4,27.6h-1.1l-3.3-23.2h-37.1v20.8l134,10.1C695.6,413.1,681.8,400.2,659.2,400.2z"/>
<polygon points="613.8,582 613.8,526.5 570.2,562.9 "/>
<polygon points="568.3,564.5 568.3,573.5 576.3,587.7 613.8,587.7 613.8,582 570.2,562.9 "/>
<polygon points="568.3,535.1 568.3,562 570.2,562.9 613.8,526.5 613.8,503 "/>
<polygon points="570.2,562.9 568.3,562 568.3,564.5 "/>
<path d="M866.8,448c-7.7-32.3-27.5-47.8-57.4-47.8c-24.2,0-46.1,9.9-65.6,24.1l5,11.1l6.6,4.3L866.8,448z"/>
<polygon points="748.8,435.4 750.5,439.3 755.3,439.6 "/>
<path d="M866.8,448l-111.5-8.4l18.3,11.9c9.4-5.1,18.2-8.1,27-8.1c16.7,0,23.4,10.5,24.3,26.5c-6.5,0.8-12.6,1.8-18.4,2.9l63.9,41.4
	v-31.2C870.4,469.7,869.2,458.1,866.8,448z"/>
<path d="M738.4,537c0,30.8,17.8,55.2,45.8,55.2c17.3,0,31.8-9.6,44.7-23.2h1.1l3.3,18.8h37.1v-73.5l-63.9-41.4
	C758.9,482.2,738.4,502.5,738.4,537z M824.9,534.5c-8.1,9.6-15,15.7-25.3,15.7c-10.8,0-17.6-5.8-17.6-17.6
	c0-13.8,10.6-24.9,42.9-30.1V534.5z"/>
<path d="M750.5,439.3l9.4,20.7c4.8-3.2,9.3-6.1,13.7-8.4l-18.3-11.9L750.5,439.3z"/>
<path d="M1060.7,476.2H1045l-20.1,35.9h72.8c0.9-4.4,1.9-14.2,1.9-24c0-7.9-0.5-15.4-1.6-22.6l-38.7-2.9
	C1060.3,466.7,1060.7,471.3,1060.7,476.2z"/>
<path d="M1039.4,592.2c18.2,0,38.8-7.6,54.5-20.6l-15.1-32.7c-11.2,7.8-21.6,12-33.2,12c-13.9,0-25.4-5.6-32.7-17.5l-22.5,40.2
	C1003.7,585.7,1020.6,592.2,1039.4,592.2z"/>
<path d="M1035.2,441.6c10.8,0,17.8,5.1,21.7,13.5l20.6-36.8c-10.6-11.3-25-18-43.3-18c-27.6,0-54.3,20.4-66.2,55.5l42.2,3.2
	C1015.8,447.3,1025,441.6,1035.2,441.6z"/>
<path d="M1005.3,476.2c0.9-6.8,2.6-12.5,4.9-17.3l-42.2-3.2c-4,11.9-6.3,25.5-6.3,40.6c0,34.6,11.1,61,28.8,77.2l22.5-40.2
	c-3.4-5.6-5.9-12.7-7.2-21.2h19.1l20.1-35.9H1005.3z"/>
<path d="M1056.8,455c1.1,2.3,1.9,4.8,2.5,7.6l38.7,2.9c-2.9-19.3-9.7-35.8-20.5-47.3L1056.8,455z"/>
<path d="M1308.5,407.8l-13-5.1c-13.2,4.7-23.8,15.8-33.9,28.3c-7.8-19.7-20.8-30.8-42.4-30.8c-12.4,0-22.4,4.8-31.1,12.1l16,34.2
	c11,0.5,16.6,7.7,17.5,28.4l45.7,3.4v-14.1c9.7-12.1,18.4-17.8,26.2-17.8c12.9,0,19,8.2,19,34.6v0.7l10.5,0.8L1308.5,407.8z"/>
<path d="M1348.1,423.2c-6.6-12.4-16.5-20.2-30.3-22.3l24.7,20.2L1348.1,423.2z"/>
<path d="M1350,427.1c-0.6-1.3-1.2-2.6-1.9-3.9l-5.5-2.1L1350,427.1z"/>
<path d="M1342.6,421l-24.7-20.2c-2.5-0.4-5.2-0.6-8-0.6c-0.9,0-1.8,0-2.7,0.1l1.4,7.5L1342.6,421z"/>
<polygon points="1221.7,587.7 1267.2,587.7 1267.2,581.1 1221.7,484.1 "/>
<polygon points="1131,587.7 1176.6,587.7 1176.6,471.4 1131,468 "/>
<polygon points="1343,587.7 1357.9,587.7 1357.9,485.1 1322.8,482.5 "/>
<path d="M1307.1,400.3c-4.1,0.3-7.9,1.1-11.6,2.4l13,5.1L1307.1,400.3z"/>
<path d="M1350,427.1l-7.4-6l-34.1-13.3l14.3,74.7l35,2.6v-11.1C1357.9,455.1,1355.3,439.2,1350,427.1z"/>
<polygon points="1312.4,481.7 1312.4,587.7 1343,587.7 1322.8,482.5 "/>
<path d="M1202.7,446.4c0.5,0,0.9,0,1.3,0l-16-34.2c-5.5,4.5-10.6,10-15.4,15.9h-1.1l-3.3-23.5H1131V468l45.5,3.4v-7.2
	C1186.3,452.2,1195.1,446.4,1202.7,446.4z"/>
<path d="M1221.7,481v3l45.5,97.1V478.3l-45.7-3.4C1221.7,476.8,1221.7,478.8,1221.7,481z"/>
<path d="M1490.6,495.2l46.6,3.5c0-0.6,0-1.3,0-1.9l-47.9-18.6C1490.2,483.3,1490.5,489,1490.6,495.2z"/>
<path d="M1490.6,495.2c0,0.4,0,0.7,0,1.1c0,16.6-2.6,30.1-7.7,39.2l27.3,22.3l19.4-16.7c4.7-12.2,7.4-26.4,7.7-42.4L1490.6,495.2z"
	/>
<path d="M1462.4,444c14.9,0,23.9,13,27,34.1l47.9,18.6c0-0.2,0-0.3,0-0.5c0-60.9-36-96-74.9-96c-25.5,0-49.8,15.1-63.4,42.7
	l41.8,16.3C1445.5,449.5,1452.7,444,1462.4,444z"/>
<path d="M1427.6,490.4l6.7,0.5c0.5-12.9,2.6-23.7,6.5-31.7L1399,443c-2.8,5.6-5.1,11.8-6.9,18.4L1427.6,490.4z"/>
<path d="M1427.6,490.4l6.6,5.4c0-1.7,0-3.3,0.1-4.9L1427.6,490.4z"/>
<path d="M1510.2,557.7l7,5.8c4.9-6.5,9.1-14,12.3-22.4L1510.2,557.7z"/>
<path d="M1392,461.4c-2.2,8-3.6,16.7-4.2,26l39.8,3L1392,461.4z"/>
<path d="M1482.9,535.5c-4.7,8.3-11.5,12.9-20.5,12.9c-18.8,0-28.2-20.4-28.2-52.1c0-0.2,0-0.3,0-0.5l-6.6-5.4l-39.8-3
	c-0.2,2.9-0.3,5.8-0.3,8.9c0,60.7,36,95.9,74.9,95.9c2.8,0,5.6-0.2,8.4-0.6l39.3-33.8L1482.9,535.5z"/>
<path d="M1470.8,591.6c17.7-2.3,34.2-12,46.4-28.1l-7-5.8L1470.8,591.6z"/>
<polygon points="1661.5,510.7 1664.5,508.3 1661.5,508.1 "/>
<path d="M1642.4,446.4c13.1,0,19.1,8.2,19.1,34.6v27l3.1,0.2l42.5-33.1v-1.1c0-31.9-6.9-55.2-22.5-66.4l-45.3,38.9
	C1640.3,446.5,1641.3,446.4,1642.4,446.4z"/>
<polygon points="1584,494.2 1580.4,501.9 1613.9,504.5 1613.9,468.4 "/>
<polygon points="1575.8,511.8 1613.9,526.6 1613.9,504.5 1580.4,501.9 "/>
<polygon points="1568.4,527.7 1575.8,511.8 1568.4,508.9 "/>
<polygon points="1575.4,501.6 1568.4,507.6 1568.4,508.9 1575.8,511.8 1580.4,501.9 "/>
<polygon points="1568.4,587.7 1613.9,587.7 1613.9,547.7 1568.4,583.1 "/>
<polygon points="1661.5,587.7 1707,587.7 1707,562.8 1661.5,545.1 "/>
<polygon points="1707,511.5 1707,475.2 1664.5,508.3 "/>
<polygon points="1664.5,508.3 1661.5,510.7 1661.5,545.1 1707,562.8 1707,511.5 "/>
<path d="M1584,494.2l35.5-76.3c-3.3,3.1-6.5,6.5-9.5,9.9h-1.1l-3.3-23.2h-37.1V501l7,0.5L1584,494.2z"/>
<polygon points="1584,494.2 1575.4,501.6 1580.4,501.9 "/>
<polygon points="1575.8,511.8 1568.4,527.7 1568.4,583.1 1613.9,547.7 1613.9,526.6 "/>
<polygon points="1575.4,501.6 1568.4,501 1568.4,507.6 "/>
<path d="M1613.9,468.4v-4.2c9.1-10.4,15.7-16.5,25.3-17.6l45.3-38.9c-6.7-4.9-15.1-7.4-25.2-7.4c-16,0-28.9,7.5-39.8,17.7
	l-35.5,76.3L1613.9,468.4z"/>
<path d="M1786,517.5l-47.5-3.6c3.3,36.9,17.3,62.5,38.6,73l31.3-39.4C1797,545.7,1789.2,536.1,1786,517.5z"/>
<polygon points="1882.9,329.2 1837.4,329.2 1837.4,373.6 1882.9,338.2 "/>
<path d="M1837.4,531.4c-7.5,12-15.4,16.4-25.1,16.4c-1.4,0-2.7-0.1-4-0.3l-31.3,39.4c7.1,3.5,14.9,5.3,23.4,5.3
	c14.8,0,30-9.6,40.9-22.6h1.1l3.3,18.1h37.1v-62.9l-45.5-3.4V531.4z"/>
<polygon points="1837.4,521.3 1882.9,524.8 1882.9,453.7 1837.4,511 "/>
<path d="M1801.4,400.2c-21.3,0-42.2,15.7-54,43.5l55.8-43.4C1802.6,400.3,1802,400.2,1801.4,400.2z"/>
<path d="M1738.4,513.9l47.5,3.6c-1.1-6.2-1.6-13.5-1.6-21.8c0-34.8,12.9-51,27.7-51c8.3,0,17.4,3,25.4,11.6V511l45.5-57.3V338.2
	l-45.5,35.5v18l1.6,27.7c-10-11.2-20-18.5-35.9-19l-55.8,43.4c-6.1,14.4-9.8,32.1-9.8,52.5C1737.7,502.4,1737.9,508.3,1738.4,513.9z
	"/>
</svg>
