<?xml version="1.0" encoding="utf-8"?>
<!-- Generator: Adobe Illustrator 25.2.0, SVG Export Plug-In . SVG Version: 6.00 Build 0)  -->
<svg version="1.1" id="Layer_1" xmlns="http://www.w3.org/2000/svg" xmlns:xlink="http://www.w3.org/1999/xlink" x="0px" y="0px"
	 viewBox="0 0 1920 1080" style="enable-background:new 0 0 1920 1080;" xml:space="preserve">
<style type="text/css">
	.st0{fill:none;}
</style>
<path class="st0" d="M964.7,499.5c-2.7-8.8-4.1-18.5-4.1-29.2c0-8.6,1-16.7,2.9-24.2l-93.6,19.6v18.3L964.7,499.5z"/>
<path class="st0" d="M1010,436.4l39.2-8.2c-3.9-2.9-9-4.6-15.6-4.6C1024.2,423.6,1015.6,427.9,1010,436.4z"/>
<polygon class="st0" points="531.6,509.8 531.6,536.6 569.6,528.6 569.6,457.2 "/>
<path class="st0" d="M490.3,532.3c-12.9,11.6-27.3,19.8-44.4,19.8c-10.8,0-20.1-3.1-27.4-8.5l-8.2,18.3l83.6-17.5l-2.5-12.1H490.3z"
	/>
<path class="st0" d="M1167.6,403.4l15.9-3.3c9.2-6.9,19.7-11.7,32.9-11.7c2.2,0,4.2,0.1,6.2,0.3l0.4-0.4l-27.9-34.2l-36.9,38h7.6
	L1167.6,403.4z"/>
<path class="st0" d="M1003.9,453.2h55.1c0-10.9-3-19.9-9.8-25l-39.2,8.2C1007.1,440.8,1004.9,446.4,1003.9,453.2z"/>
<polygon class="st0" points="1563.5,448.4 1563.5,416.6 1541.9,420.5 "/>
<polygon class="st0" points="1563.5,416.6 1563.5,394.3 1536.8,413.9 1541.9,420.5 "/>
<path class="st0" d="M443.7,501.3c0,10.1,6.8,15,17.5,15c10.2,0,17.1-5.2,25.2-13.4v-27.3C454.2,480.1,443.7,489.5,443.7,501.3z"/>
<path class="st0" d="M1128.9,422.4v-10.8l-40.8,8.5c5.2,10,8.3,21.8,9.3,34.8L1128.9,422.4z"/>
<path class="st0" d="M471,426.2l-11.5,25.7c8.1-1.7,17-3.1,26.9-4.1C485.6,436.8,481.2,429,471,426.2z"/>
<path class="st0" d="M707.3,457.7l36,5.9l-38.2-36c1.5,7.1,2.2,15.1,2.2,23.8V457.7z"/>
<path class="st0" d="M707.3,499.8l32.6-6.8c1.9-8.1,5.9-15.1,12.2-21.1l-8.9-8.4l-36-5.9V499.8z"/>
<path class="st0" d="M531.6,509.8l38-52.6v-22l-41.8-6.8c2.5,8.7,3.8,18.9,3.8,30.6V509.8z"/>
<path class="st0" d="M759.5,466.2l-16.2-2.6l8.9,8.4C754.4,469.8,756.8,467.9,759.5,466.2z"/>
<path class="st0" d="M610.9,411.9c12.9-12.6,28.2-23.6,49.1-23.6c1.3,0,2.5,0,3.7,0.1l-26.4-24.9l-28.9,39.9l1.4,8.4H610.9z"/>
<path class="st0" d="M782,500l17.4,16.4c0,0,0.1,0,0.1,0c10.2,0,17.1-5.2,25.2-13.4v-26.2l-3.4-0.6C792.9,480.6,782.8,489.2,782,500
	z"/>
<path class="st0" d="M824.6,475.7c-1.2,0.2-2.3,0.3-3.4,0.5l3.4,0.6V475.7z"/>
<path class="st0" d="M661.8,450.3l-46.7-7.6c-0.1,0.1-0.2,0.2-0.3,0.3v76.2l47.2-9.9v-51.9C662.1,454.8,662,452.4,661.8,450.3z"/>
<path class="st0" d="M643.1,427.8c-11.3,0-18.2,5.3-28,14.9l46.7,7.6C660.6,433.3,654.7,427.8,643.1,427.8z"/>
<path class="st0" d="M1128.9,422.4l-31.5,32.5c0.2,2.8,0.3,5.6,0.3,8.5c0,8.3-1,16.7-1.9,20.4h-26.5l-23.9,24.6l72-12.7l11.6-11.8
	V422.4z"/>
<path class="st0" d="M828.6,532.3c-2.1,1.9-4.3,3.7-6.5,5.4l6,5.7l3.5-1.8l-1.9-9.3H828.6z"/>
<path class="st0" d="M1604.8,411.9c1.1-1.1,2.2-2.1,3.3-3.2l-4.9,0.9l0.4,2.3H1604.8z"/>
<polygon class="st0" points="1286.1,465.8 1309.1,493.9 1309.1,461.7 "/>
<path class="st0" d="M1458.2,425.7c-9.9,0-17.1,4.9-21.7,13.4l38.5-6.8C1470.5,428.1,1465,425.7,1458.2,425.7z"/>
<path class="st0" d="M1446.8,512.1c3.3,1.7,7.1,2.6,11.3,2.6c18.7,0,28-17.4,28-44.5c0-6.6-0.6-12.5-1.6-17.9l-14.8,10.9
	L1446.8,512.1z"/>
<path class="st0" d="M1480.5,440.3c-1.6-3.1-3.4-5.8-5.6-8l-38.5,6.8c-4.2,7.7-6.3,18.4-6.3,31.2c0,7.7,0.8,14.6,2.3,20.5l37.3-27.5
	L1480.5,440.3z"/>
<path class="st0" d="M1484.5,452.4c-0.9-4.5-2.3-8.6-4-12.1l-10.8,23L1484.5,452.4z"/>
<polygon class="st0" points="1117.2,495.7 1128.9,493.6 1128.9,483.9 "/>
<path class="st0" d="M1309.1,457.3c0-22.5-6-29.5-18.9-29.5c-7.2,0-15.3,4.3-24.2,13.3l20.1,24.7l22.9-4.1V457.3z"/>
<path class="st0" d="M1200.1,427.8c-7.6,0-16.4,4.9-26,15.2v42.6l44.9-7.9v-20.3C1219,434.8,1212.9,427.8,1200.1,427.8z"/>
<path class="st0" d="M1446.8,512.1l22.9-48.8l-37.3,27.5C1435,501,1439.8,508.4,1446.8,512.1z"/>
<path class="st0" d="M1264.2,443v26.7l21.9-3.9l-20.1-24.7C1265.4,441.7,1264.8,442.3,1264.2,443z"/>
<path class="st0" d="M1017.1,508c1.9,1.7,4,3.1,6.3,4.3l9.5-1.7L1017.1,508z"/>
<path class="st0" d="M1353.5,548.3l0.3,0.4l42.4-31.2c-7.8-12.6-12.4-28.5-12.4-47.2c0-7.9,0.8-15.4,2.4-22.3l-31.9,5.6v94.7H1353.5
	z"/>
<path class="st0" d="M1023.4,512.3c4.2,2.2,8.9,3.6,14,4.2l4.3-4.4l-8.8-1.4L1023.4,512.3z"/>
<path class="st0" d="M1170.2,412.2c4.3-4.4,8.7-8.5,13.4-12.1l-15.9,3.3l1.4,8.8H1170.2z"/>
<path class="st0" d="M1044,516.8c5.1,0,10-0.7,14.8-2.1l-17-2.8l-4.3,4.4C1039.6,516.7,1041.7,516.8,1044,516.8z"/>
<polygon class="st0" points="1541.9,420.5 1536.8,413.9 1523.5,423.7 "/>
<path class="st0" d="M1223.3,388.7l-0.3-0.4l-0.4,0.4C1222.8,388.7,1223.1,388.7,1223.3,388.7z"/>
<polygon class="st0" points="1041.8,512 1045.3,508.4 1032.9,510.6 "/>
<path class="st0" d="M1004.4,483.8c1.9,10.8,6.4,18.8,12.7,24.2l15.8,2.6l12.3-2.2l23.9-24.6H1004.4z"/>
<path class="st0" d="M1521.4,425.3l2.1-1.5l-2.7,0.5C1521,424.6,1521.2,424.9,1521.4,425.3z"/>
<path class="st0" d="M1520.8,424.2l2.7-0.5l13.3-9.8l-27.3-35.3l-10.4,22.3C1507.7,406.7,1515.1,414.6,1520.8,424.2z"/>
<path class="st0" d="M781.9,501.3c0,10,6.7,15,17.4,15L782,500C782,500.4,781.9,500.9,781.9,501.3z"/>
<path class="st0" d="M869.9,484.1v37.4L907,502l-37.1,19.5v18l105-18.6c-4.3-6.3-7.7-13.4-10.2-21.4L869.9,484.1z"/>
<polygon class="st0" points="1174.1,485.6 1174.1,533.5 1219,540.8 1219,477.7 "/>
<polygon class="st0" points="1117.2,495.7 1092.9,520.3 1128.9,526.2 1128.9,493.6 "/>
<polygon class="st0" points="831.2,546.3 832.9,547.9 832.5,546.1 "/>
<path class="st0" d="M1045.3,508.4l-3.5,3.6l17,2.8c6.1-1.7,12-4.5,18.2-8.2l6.5,12.2l9.4,1.5l24.3-24.7L1045.3,508.4z"/>
<polygon class="st0" points="1087.4,526 1092.9,520.3 1083.5,518.8 "/>
<path class="st0" d="M322.4,548.3v-56.2l-29.8-61.3c-4.3-1.1-8.4-1.9-13.9-1.9c-11.5,0-25.5,7.6-33.6,28.9v90.5h-5.9l42.2,40.6
	l79.8-16.7l-11.6-23.9H322.4z"/>
<path class="st0" d="M418.5,543.6c-11.5-8.5-18.2-22.5-18.2-38.6c0-27.5,17.9-44.5,59.1-53.1l11.5-25.7c-2.5-0.7-5.5-1-8.8-1
	c-12.8,0-25.6,5.5-40.4,14.1l-16.1-30.4c0.1-0.1,0.2-0.1,0.4-0.2l-38.4-6.2v145.9h-18l11.6,23.9l49-10.3L418.5,543.6z"/>
<polygon class="st0" points="831.6,541.6 828.1,543.4 831.2,546.3 832.5,546.1 "/>
<polygon class="st0" points="818.2,548.6 831.2,546.3 828.1,543.4 "/>
<path class="st0" d="M1396.2,517.5l-42.4,31.2l13.2,16.1l51.2,8.3l12.4-26.4C1416.8,541.1,1404.7,531.2,1396.2,517.5z"/>
<path class="st0" d="M1795,388.4c16.8,0,27.1,6.4,37.4,16.3l-1.6-23.7v-11.7l-115.5,20.5l28.2,31.7
	C1755.5,400.2,1775.1,388.4,1795,388.4z"/>
<polygon class="st0" points="1401.9,607.8 1418.2,573.2 1367,564.9 "/>
<path class="st0" d="M1830.8,500.3v-64.1c-8-7.3-17-9.9-25.3-9.9c-13.1,0-24.7,11-27.1,34.4l43.4,48.7
	C1825,507.2,1827.9,504.2,1830.8,500.3z"/>
<polygon class="st0" points="1353.5,548.3 1309.1,548.3 1309.1,493.9 1286.1,465.8 1264.2,469.6 1264.2,548.2 1338.2,560.2 
	1353.8,548.7 "/>
<polygon class="st0" points="1338.2,560.2 1367,564.9 1353.8,548.7 "/>
<path class="st0" d="M236.8,392.2l3.3,27.3h1.1c8.4-15.7,19.9-25.4,31.8-29.2l-1.7-3.4l-60.6-9.9l-50.4,61.1
	c1.1,6.4,1.6,13.3,1.6,21v14.9l38,36.5V392.2H236.8z"/>
<path class="st0" d="M1805.9,514.2c5.9,0,11.1-1.4,16-4.9l-43.4-48.7c-0.3,2.9-0.5,5.9-0.5,9.2
	C1778.1,500.4,1788.4,514.2,1805.9,514.2z"/>
<path class="st0" d="M1563.5,548.3v-99.9l-21.6-27.9l-18.4,3.3l-2.1,1.5c7,12.3,11.1,27.4,11.1,45c0,51.8-35.7,81.8-74.4,81.8
	c-9.5,0-18.9-1.8-27.6-5.4l-12.4,26.4l276.5,44.9l-86-111.2v41.4H1563.5z"/>
<path class="st0" d="M822.1,537.7c-11.2,8.6-23.6,14.4-38,14.4c-27.9,0-45.5-20.8-45.5-47.1c0-4.3,0.4-8.3,1.3-12.1l-32.6,6.8v48.6
	h-45.2v-39.1l-47.2,9.9v29.2h-45.2v-19.7l-38,8v11.8h-27.8L465,602l38.8-53.7h-9.1l-0.8-3.9L410.3,562L400,585l10.3-23l-49,10.3
	l25.6,52.8l431.3-76.4l9.9-5.2L822.1,537.7z"/>
<path class="st0" d="M281.7,388.5l-10.4-1.7l1.7,3.4C275.9,389.3,278.8,388.7,281.7,388.5z"/>
<path class="st0" d="M74,501.3c0,10.1,6.8,15,17.5,15c1.6,0,3.2-0.1,4.6-0.4l20.5-24.9v-15.3C84.5,480.1,74,489.5,74,501.3z"/>
<path class="st0" d="M116.7,503V491l-20.5,24.9C104,514.6,109.9,509.8,116.7,503z"/>
<path class="st0" d="M292.6,430.8l29.8,61.3v-97l-19.7-3.2l-7.5,39.5C294.4,431.2,293.5,431,292.6,430.8z"/>
<path d="M91.5,516.3c-10.8,0-17.5-4.9-17.5-15c0-11.8,10.5-21.2,42.7-25.7V491l27.9-33.8l-68.4-65.8c-14.3,3.5-27.7,9.7-40.1,17.5
	l16.1,30.4c14.8-8.6,27.6-14.1,40.4-14.1c16.6,0,23.2,8.9,24.1,22.6c-60.4,6.5-86,24.3-86,57.2c0,23.3,13.8,42.2,36.3,46.3
	l29.1-35.4C94.7,516.2,93.1,516.3,91.5,516.3z"/>
<path d="M116.7,491V503c-6.8,6.9-12.7,11.6-20.5,13L67,551.3c2.9,0.5,6,0.8,9.2,0.8c17.2,0,31.6-8.2,44.4-19.8h1.1l3.3,16h36.9
	v-74.4l-17.4-16.7L116.7,491z"/>
<path d="M160.3,438.1l-15.7,19.1l17.4,16.7V459C161.9,451.4,161.4,444.5,160.3,438.1z"/>
<path d="M160.3,438.1c-5.7-33.6-26.2-49.7-59-49.7c-8.6,0-17,1.1-25.1,3.1l68.4,65.8L160.3,438.1z"/>
<path d="M292.6,430.8c0.9,0.2,1.7,0.4,2.6,0.7l7.5-39.5l-21.1-3.4c-2.9,0.2-5.8,0.8-8.7,1.8L292.6,430.8z"/>
<path d="M302.8,391.5c-4.4-2-9.5-3.1-18.2-3.1c-1,0-2,0-2.9,0.1l21.1,3.4L302.8,391.5z"/>
<polygon points="199.9,548.3 239.3,548.3 199.9,510.5 "/>
<path d="M245.2,457.8c8.1-21.3,22.1-28.9,33.6-28.9c5.5,0,9.5,0.8,13.9,1.9L273,390.3c-11.8,3.8-23.4,13.5-31.8,29.2h-1.1l-3.3-27.3
	h-36.9v118.3l39.4,37.9h5.9V457.8z"/>
<polygon points="322.4,548.3 349.7,548.3 322.4,492.1 "/>
<path d="M345.1,369.3c15.2,0,26.2-10.1,26.2-24.2c0-14.2-11-24.2-26.2-24.2s-26.2,10-26.2,24.2C318.9,359.2,329.9,369.3,345.1,369.3
	z"/>
<polygon points="367.7,392.2 322.4,392.2 322.4,395.1 367.7,402.5 "/>
<polygon points="349.7,548.3 367.7,548.3 367.7,402.5 322.4,395.1 322.4,492.1 "/>
<polygon points="503.8,548.3 531.6,548.3 531.6,536.6 508.8,541.3 "/>
<path d="M527.8,428.5c-6.3-21.7-20.1-34.4-40.6-38.6l-13.3,29.8L527.8,428.5z"/>
<polygon points="508.8,541.3 531.6,536.6 531.6,509.8 "/>
<path d="M487.2,389.9c-5-1-10.4-1.5-16.3-1.5c-23.9,0-45.6,8.3-64.9,20.3l67.8,11L487.2,389.9z"/>
<path d="M421.8,439.3c14.8-8.6,27.6-14.1,40.4-14.1c3.3,0,6.2,0.4,8.8,1l2.9-6.5l-67.8-11c-0.1,0.1-0.2,0.1-0.4,0.2L421.8,439.3z"/>
<path d="M400.3,505c0,16.1,6.6,30.1,18.2,38.6l41-91.7C418.3,460.5,400.3,477.5,400.3,505z"/>
<polygon points="493.9,544.5 494.7,548.3 503.8,548.3 508.8,541.3 "/>
<path d="M471,426.2c10.2,2.7,14.7,10.6,15.4,21.5c-9.9,1.1-18.8,2.4-26.9,4.1l-41,91.7c7.3,5.4,16.6,8.5,27.4,8.5
	c17.2,0,31.6-8.2,44.4-19.8h1.1l2.5,12.1l14.9-3.1l22.8-31.5V459c0-11.7-1.3-21.8-3.8-30.6l-53.9-8.8L471,426.2z M486.3,503
	c-8,8.2-14.9,13.4-25.2,13.4c-10.8,0-17.5-4.9-17.5-15c0-11.8,10.5-21.2,42.7-25.7V503z"/>
<path d="M663.7,388.5l41.5,39.1C700.3,404,687.1,389.8,663.7,388.5z"/>
<polygon points="583.8,437.6 569.6,435.3 569.6,457.2 "/>
<polygon points="608.4,403.5 606.5,392.2 569.6,392.2 569.6,435.3 583.8,437.6 "/>
<path d="M615.1,442.7c9.8-9.6,16.7-14.9,28-14.9c11.6,0,17.5,5.5,18.7,22.5l45.5,7.4v-6.3c0-8.7-0.7-16.7-2.2-23.8l-41.5-39.1
	c-1.2-0.1-2.5-0.1-3.7-0.1c-20.8,0-36.2,10.9-49.1,23.6h-1.1l-1.4-8.4l-24.6,34.1L615.1,442.7z"/>
<path d="M615.1,442.7l-31.4-5.1l-14.2,19.6v71.4l45.2-9.5V443C614.9,442.9,615,442.8,615.1,442.7z"/>
<polygon points="662.1,548.3 707.3,548.3 707.3,499.8 662.1,509.2 "/>
<path d="M661.8,450.3c0.2,2.2,0.2,4.5,0.2,7v51.9l45.2-9.5v-42.1L661.8,450.3z"/>
<polygon points="569.6,548.3 614.8,548.3 614.8,519.1 569.6,528.6 "/>
<polygon points="832.9,548.3 833.4,548.3 832.9,547.9 "/>
<path d="M752.2,471.9c-6.3,5.9-10.3,12.9-12.2,21.1l28.3-5.9L752.2,471.9z"/>
<path d="M781.9,501.3c0-0.5,0-0.9,0.1-1.4L768.3,487l-28.3,5.9c-0.9,3.8-1.3,7.8-1.3,12.1c0,26.3,17.7,47.1,45.5,47.1
	c14.3,0,26.8-5.8,38-14.4l-22.7-21.4C788.7,516.3,781.9,511.4,781.9,501.3z"/>
<path d="M869.9,465.7V459c0-47.9-21.6-70.7-60.7-70.7c-24,0-45.8,8.4-65.2,20.6l16.1,30.4c14.8-8.6,27.6-14.1,40.4-14.1
	c16.6,0,23.2,8.9,24.1,22.6c-29.8,3.2-51.1,9.2-65.1,18.4l61,9.9L869.9,465.7z"/>
<path d="M821.2,476.2c1.1-0.2,2.2-0.3,3.4-0.5v1.1l45.2,7.4v-18.3l-49.3,10.3L821.2,476.2z"/>
<path d="M824.6,503c-8,8.2-14.9,13.4-25.2,13.4c0,0-0.1,0-0.1,0l22.7,21.4c2.2-1.7,4.4-3.5,6.5-5.4h1.1l1.9,9.3l38.3-20.1v-37.4
	l-45.2-7.4V503z"/>
<polygon points="832.9,547.9 833.4,548.3 869.9,548.3 869.9,539.5 832.5,546.1 "/>
<path d="M768.3,487l52.3-10.9l-61-9.9c-2.7,1.8-5.2,3.7-7.3,5.7L768.3,487z"/>
<polygon points="831.6,541.6 832.5,546.1 869.9,539.5 869.9,521.5 "/>
<path d="M821.2,476.2l-0.7-0.1L768.3,487L782,500C782.8,489.2,792.9,480.6,821.2,476.2z"/>
<path d="M1097.6,463.3c0-2.9-0.1-5.7-0.3-8.5l-28.1,29h26.5C1096.6,480,1097.6,471.7,1097.6,463.3z"/>
<path d="M1033.6,423.6c6.6,0,11.7,1.6,15.6,4.6l38.9-8.1c-10.2-19.4-28.7-31.7-55.5-31.7c-30.4,0-59.9,21.5-69.1,57.8l46.5-9.7
	C1015.6,427.9,1024.2,423.6,1033.6,423.6z"/>
<path d="M1023.4,512.3l-48.6,8.6c8.3,12,19.7,20.8,33.1,25.9l29.5-30.4C1032.3,515.8,1027.6,514.5,1023.4,512.3z"/>
<path d="M1092,534.5l-4.6-8.5l-21,21.3C1075.5,544.2,1084.3,539.9,1092,534.5z"/>
<path d="M964.7,499.5l52.4,8.5c-6.3-5.4-10.8-13.4-12.7-24.2h64.8l28.1-29c-0.9-13-4-24.8-9.3-34.8l-38.9,8.1
	c6.8,5.1,9.8,14.1,9.8,25h-55.1c1.1-6.8,3.2-12.3,6.1-16.8l-46.5,9.7c-1.9,7.5-2.9,15.5-2.9,24.2C960.5,481,962,490.7,964.7,499.5z"
	/>
<path d="M1058.8,514.8c-4.8,1.4-9.7,2.1-14.8,2.1c-2.2,0-4.4-0.1-6.5-0.4l-29.5,30.4c9.1,3.5,19.2,5.3,29.8,5.3
	c9.3,0,19.1-1.7,28.6-4.9l21-21.3l-3.8-7.2L1058.8,514.8z"/>
<path d="M1017.1,508l-52.4-8.5c2.4,8,5.9,15.1,10.2,21.4l48.6-8.6C1021.1,511.1,1019,509.7,1017.1,508z"/>
<path d="M1077,506.6c-6.2,3.7-12.2,6.5-18.2,8.2l24.8,4L1077,506.6z"/>
<polygon points="1219,548.3 1264.2,548.3 1264.2,548.2 1219,540.8 "/>
<polygon points="1128.9,548.3 1174.1,548.3 1174.1,533.5 1128.9,526.2 "/>
<path d="M1222.6,388.7c-2-0.2-4-0.3-6.2-0.3c-13.2,0-23.7,4.8-32.9,11.7l35.1-7.3L1222.6,388.7z"/>
<path d="M1218.6,392.7l-35.1,7.3c-4.7,3.6-9.1,7.7-13.4,12.1h-1.1l-1.4-8.8l-25.5,5.3l-13.2,13.6v61.5L1218.6,392.7z"/>
<polygon points="1309.1,548.3 1353.5,548.3 1309.1,493.9 "/>
<polygon points="1167.6,403.4 1165.8,392.2 1158.2,392.2 1142.1,408.8 "/>
<path d="M1218.6,392.7l6.8-1.4l-2.1-2.6c-0.2,0-0.5,0-0.7-0.1L1218.6,392.7z"/>
<polygon points="1158.2,392.2 1128.9,392.2 1128.9,411.5 1142.1,408.8 "/>
<path d="M1266,441.1c8.9-9,17-13.3,24.2-13.3c12.9,0,18.9,7,18.9,29.5v4.4l45.2-8v-2.3c0-39-14.8-63-47.8-63
	c-20.2,0-34.5,12-47.9,26.3c-5.8-12.6-14.5-21.1-27.5-24.5l-5.6,1.2L1266,441.1z"/>
<polygon points="1309.1,493.9 1353.5,548.3 1354.3,548.3 1354.3,453.7 1309.1,461.7 "/>
<polygon points="1219,477.7 1219,540.8 1264.2,548.2 1264.2,469.6 "/>
<polygon points="1128.9,493.6 1128.9,526.2 1174.1,533.5 1174.1,485.6 "/>
<path d="M1231,390.1c-2.4-0.6-5-1.1-7.7-1.4l2.1,2.6L1231,390.1z"/>
<polygon points="1142.1,408.8 1128.9,411.5 1128.9,422.4 "/>
<path d="M1266,441.1l-40.6-49.8l-6.8,1.4l-89.8,91.1v9.7l45.2-8V443c9.6-10.3,18.4-15.2,26-15.2c12.9,0,18.9,7,18.9,29.5v20.3
	l45.2-8V443C1264.8,442.3,1265.4,441.7,1266,441.1z"/>
<path d="M1485.1,430.5l-4.6,9.8c1.7,3.5,3.1,7.5,4,12.1l36.9-27.2c-0.2-0.4-0.4-0.7-0.6-1.1L1485.1,430.5z"/>
<path d="M1432.4,490.8l-36.2,26.7c8.4,13.7,20.5,23.7,34.4,29.3l16.2-34.6C1439.8,508.4,1435,501,1432.4,490.8z"/>
<path d="M1485.1,430.5l-10.3,1.8c2.2,2.2,4.1,4.9,5.6,8L1485.1,430.5z"/>
<path d="M1486.2,470.3c0,27-9.3,44.5-28,44.5c-4.3,0-8-0.9-11.3-2.6l-16.2,34.6c8.7,3.5,18,5.4,27.6,5.4c38.6,0,74.4-30,74.4-81.8
	c0-17.7-4.1-32.8-11.1-45l-36.9,27.2C1485.6,457.8,1486.2,463.7,1486.2,470.3z"/>
<path d="M1520.8,424.2c-5.7-9.7-13.2-17.5-21.8-23.3l-13.9,29.7L1520.8,424.2z"/>
<path d="M1396.2,517.5l36.2-26.7c-1.5-6-2.3-12.9-2.3-20.5c0-12.8,2.1-23.5,6.3-31.2l-50.2,8.9c-1.6,6.9-2.4,14.3-2.4,22.3
	C1383.8,489,1388.4,504.8,1396.2,517.5z"/>
<path d="M1458.2,425.7c6.8,0,12.4,2.3,16.7,6.6l10.3-1.8l13.9-29.7c-12-8.2-26.2-12.5-40.9-12.5c-32.7,0-63.4,21.5-72,59.7l50.2-8.9
	C1441.1,430.6,1448.3,425.7,1458.2,425.7z"/>
<polygon points="1563.5,548.3 1608.7,548.3 1608.7,506.9 1563.5,448.4 "/>
<path d="M1680.7,395.9l-72.5,12.8c-1.1,1-2.2,2.1-3.3,3.2h-1.1l-0.4-2.3l-39.8,7v31.8l45.2,58.5v-64c10-9.8,16.9-15.2,28.3-15.2
	c13.1,0,19,7,19,29.5v91h45.2v-97C1701.2,425.2,1694.8,405.8,1680.7,395.9z"/>
<path d="M1653.8,388.4c-19,0-33.5,9.1-45.7,20.4l72.5-12.8C1673.7,391,1664.8,388.4,1653.8,388.4z"/>
<polygon points="1563.5,392.2 1563.5,394.3 1566.4,392.2 "/>
<polygon points="1603.3,409.6 1600.4,392.2 1566.4,392.2 1563.5,394.3 1563.5,416.6 "/>
<path d="M1830.8,369.3V381l1.6,23.7c-10.3-9.9-20.6-16.3-37.4-16.3c-19.9,0-39.5,11.9-51.5,33l35,39.2c2.4-23.4,14-34.4,27.1-34.4
	c8.3,0,17.3,2.6,25.3,9.9v64.1c-2.9,3.9-5.8,6.9-8.9,9.1l34.8,39h19.4V403.1l-27.5-36.9L1830.8,369.3z"/>
<path d="M1805.9,514.2c-17.5,0-27.9-13.8-27.9-44.5c0-3.2,0.2-6.3,0.5-9.2l-35-39.2c-7.4,13-11.9,29.5-11.9,48.9
	c0,51,24.5,81.8,62.5,81.8c14.7,0,29.8-8.2,40.6-19.3h1.1l3.3,15.5h17.6l-34.8-39C1817.1,512.8,1811.8,514.2,1805.9,514.2z"/>
<polygon points="1830.8,342.4 1830.8,369.3 1848.6,366.2 "/>
<polygon points="1830.8,327.8 1830.8,342.4 1848.6,366.2 1876.1,361.3 1876.1,327.8 "/>
<polygon points="1876.1,403.1 1876.1,361.3 1848.6,366.2 "/>
</svg>
